<svg preserveAspectRatio="none" overflow="visible" style="display: block;" width="25" height="25" viewBox="0 0 25 25" fill="none" xmlns="http://www.w3.org/2000/svg">
<g id="calendar_filled">
<path id="Vector" fill-rule="evenodd" clip-rule="evenodd" d="M7.96146 3.19688C7.8286 3.25354 7.70744 3.33443 7.60417 3.43542C7.34583 3.69375 7.29167 3.89583 7.29167 4.61146V5.20833H6.17396C5.55208 5.20833 4.94792 5.22813 4.80938 5.25313C4.00938 5.4 3.31667 6.09271 3.16979 6.89271C3.14271 7.04375 3.125 7.78229 3.125 8.77813V10.4167H21.875V8.77813C21.875 7.78229 21.8573 7.04375 21.8302 6.89271C21.6833 6.09271 20.9906 5.4 20.1906 5.25313C20.0521 5.22813 19.4479 5.20833 18.826 5.20833H17.7083V4.61146C17.7083 3.89688 17.6542 3.69375 17.3969 3.43646C17.3015 3.33964 17.1878 3.26276 17.0625 3.21028C16.9371 3.1578 16.8026 3.13078 16.6667 3.13078C16.5308 3.13078 16.3962 3.1578 16.2709 3.21028C16.1455 3.26276 16.0318 3.33964 15.9365 3.43646C15.6792 3.69375 15.625 3.89688 15.625 4.61146V5.20833H9.375V4.61146C9.375 3.89688 9.32083 3.69375 9.06354 3.43646C8.92237 3.29472 8.7433 3.19672 8.54781 3.15423C8.35233 3.11173 8.14874 3.12654 7.96146 3.19688ZM3.125 16.2219C3.125 18.7146 3.13958 20.025 3.16979 20.1906C3.31667 20.9906 4.00938 21.6833 4.80938 21.8302C5.15729 21.8938 19.8427 21.8938 20.1906 21.8302C20.9906 21.6833 21.6833 20.9906 21.8302 20.1906C21.8604 20.025 21.875 18.7146 21.875 16.2219V12.5H3.125V16.2219Z" fill="#10161F"/>
</g>
</svg>
