<svg width="23" height="19" viewBox="0 0 23 19" fill="none" xmlns="http://www.w3.org/2000/svg">
<g opacity="0.2">
<path d="M10.7208 4.99999C10.7208 6.06085 10.3101 7.07827 9.57899 7.82841C8.84787 8.57855 7.85628 8.99998 6.82233 8.99998C5.78838 8.99998 4.79678 8.57855 4.06567 7.82841C3.33456 7.07827 2.92383 6.06085 2.92383 4.99999C2.92383 3.93913 3.33456 2.92171 4.06567 2.17157C4.79678 1.42143 5.78838 1 6.82233 1C7.85628 1 8.84787 1.42143 9.57899 2.17157C10.3101 2.92171 10.7208 3.93913 10.7208 4.99999Z" fill="#0058BC"/>
<path fill-rule="evenodd" clip-rule="evenodd" d="M6.82233 6.33332C7.16698 6.33332 7.49751 6.19284 7.74121 5.9428C7.98492 5.69275 8.12183 5.35361 8.12183 4.99999C8.12183 4.64637 7.98492 4.30723 7.74121 4.05718C7.49751 3.80714 7.16698 3.66666 6.82233 3.66666C6.47768 3.66666 6.14715 3.80714 5.90344 4.05718C5.65974 4.30723 5.52283 4.64637 5.52283 4.99999C5.52283 5.35361 5.65974 5.69275 5.90344 5.9428C6.14715 6.19284 6.47768 6.33332 6.82233 6.33332ZM6.82233 8.99998C7.33429 8.99998 7.84123 8.89652 8.31422 8.6955C8.78721 8.49448 9.21698 8.19984 9.57899 7.82841C9.94099 7.45698 10.2282 7.01602 10.4241 6.53072C10.62 6.04542 10.7208 5.52528 10.7208 4.99999C10.7208 4.4747 10.62 3.95456 10.4241 3.46926C10.2282 2.98396 9.94099 2.543 9.57899 2.17157C9.21698 1.80014 8.78721 1.5055 8.31422 1.30448C7.84123 1.10346 7.33429 1 6.82233 1C5.78838 1 4.79678 1.42143 4.06567 2.17157C3.33456 2.92171 2.92383 3.93913 2.92383 4.99999C2.92383 6.06085 3.33456 7.07827 4.06567 7.82841C4.79678 8.57855 5.78838 8.99998 6.82233 8.99998Z" fill="#0058BC"/>
<path fill-rule="evenodd" clip-rule="evenodd" d="M6.88712 10C6.37015 10 5.87435 10.2107 5.50879 10.5858C5.14323 10.9609 4.93787 11.4696 4.93787 12V14C4.93787 14.3536 4.80096 14.6928 4.55725 14.9428C4.31355 15.1929 3.98302 15.3333 3.63837 15.3333C3.29372 15.3333 2.96319 15.1929 2.71948 14.9428C2.47578 14.6928 2.33887 14.3536 2.33887 14V12C2.33887 10.7623 2.81806 9.57536 3.67102 8.70019C4.52398 7.82502 5.68085 7.33336 6.88712 7.33336C8.09339 7.33336 9.25026 7.82502 10.1032 8.70019C10.9562 9.57536 11.4354 10.7623 11.4354 12V12.6667C11.4354 13.0203 11.2985 13.3594 11.0548 13.6095C10.8111 13.8595 10.4805 14 10.1359 14C9.79122 14 9.46069 13.8595 9.21698 13.6095C8.97328 13.3594 8.83637 13.0203 8.83637 12.6667V12C8.83637 11.4696 8.631 10.9609 8.26545 10.5858C7.89989 10.2107 7.40409 10 6.88712 10Z" fill="#0058BC"/>
<path d="M14.6191 4.99999C14.6191 6.06085 15.0299 7.07827 15.761 7.82841C16.4921 8.57855 17.4837 8.99998 18.5176 8.99998C19.5516 8.99998 20.5432 8.57855 21.2743 7.82841C22.0054 7.07827 22.4161 6.06085 22.4161 4.99999C22.4161 3.93913 22.0054 2.92171 21.2743 2.17157C20.5432 1.42143 19.5516 1 18.5176 1C17.4837 1 16.4921 1.42143 15.761 2.17157C15.0299 2.92171 14.6191 3.93913 14.6191 4.99999Z" fill="#0058BC"/>
<path fill-rule="evenodd" clip-rule="evenodd" d="M18.5176 6.33332C18.173 6.33332 17.8425 6.19284 17.5988 5.9428C17.3551 5.69275 17.2181 5.35361 17.2181 4.99999C17.2181 4.64637 17.3551 4.30723 17.5988 4.05718C17.8425 3.80714 18.173 3.66666 18.5176 3.66666C18.8623 3.66666 19.1928 3.80714 19.4365 4.05718C19.6802 4.30723 19.8171 4.64637 19.8171 4.99999C19.8171 5.35361 19.6802 5.69275 19.4365 5.9428C19.1928 6.19284 18.8623 6.33332 18.5176 6.33332ZM18.5176 8.99998C18.0057 8.99998 17.4987 8.89652 17.0257 8.6955C16.5528 8.49448 16.123 8.19984 15.761 7.82841C15.399 7.45698 15.1118 7.01602 14.9159 6.53072C14.72 6.04542 14.6191 5.52528 14.6191 4.99999C14.6191 4.4747 14.72 3.95456 14.9159 3.46926C15.1118 2.98396 15.399 2.543 15.761 2.17157C16.123 1.80014 16.5528 1.5055 17.0257 1.30448C17.4987 1.10346 18.0057 1 18.5176 1C19.5516 1 20.5432 1.42143 21.2743 2.17157C22.0054 2.92171 22.4161 3.93913 22.4161 4.99999C22.4161 6.06085 22.0054 7.07827 21.2743 7.82841C20.5432 8.57855 19.5516 8.99998 18.5176 8.99998Z" fill="#0058BC"/>
<path fill-rule="evenodd" clip-rule="evenodd" d="M18.4525 10C18.9695 10 19.4653 10.2107 19.8309 10.5858C20.1964 10.9609 20.4018 11.4696 20.4018 12V14C20.4018 14.3536 20.5387 14.6928 20.7824 14.9428C21.0261 15.1929 21.3567 15.3333 21.7013 15.3333C22.0459 15.3333 22.3765 15.1929 22.6202 14.9428C22.8639 14.6928 23.0008 14.3536 23.0008 14V12C23.0008 10.7623 22.5216 9.57536 21.6686 8.70019C20.8157 7.82502 19.6588 7.33336 18.4525 7.33336C17.2463 7.33336 16.0894 7.82502 15.2364 8.70019C14.3835 9.57536 13.9043 10.7623 13.9043 12V12.6667C13.9043 13.0203 14.0412 13.3594 14.2849 13.6095C14.5286 13.8595 14.8591 14 15.2038 14C15.5484 14 15.879 13.8595 16.1227 13.6095C16.3664 13.3594 16.5033 13.0203 16.5033 12.6667V12C16.5033 11.4696 16.7087 10.9609 17.0742 10.5858C17.4398 10.2107 17.9356 10 18.4525 10Z" fill="#0058BC"/>
<path fill-rule="evenodd" clip-rule="evenodd" d="M12.7348 13.6666C12.2178 13.6666 11.722 13.8773 11.3564 14.2524C10.9909 14.6274 10.7855 15.1361 10.7855 15.6666V17.6666C10.7855 18.0202 10.6486 18.3593 10.4049 18.6094C10.1612 18.8594 9.83067 18.9999 9.48602 18.9999C9.14137 18.9999 8.81084 18.8594 8.56714 18.6094C8.32343 18.3593 8.18652 18.0202 8.18652 17.6666V15.6666C8.18652 14.4289 8.66571 13.2419 9.51868 12.3668C10.3716 11.4916 11.5285 10.9999 12.7348 10.9999C13.941 10.9999 15.0979 11.4916 15.9509 12.3668C16.8038 13.2419 17.283 14.4289 17.283 15.6666V17.6666C17.283 18.0202 17.1461 18.3593 16.9024 18.6094C16.6587 18.8594 16.3282 18.9999 15.9835 18.9999C15.6389 18.9999 15.3083 18.8594 15.0646 18.6094C14.8209 18.3593 14.684 18.0202 14.684 17.6666V15.6666C14.684 15.1361 14.4787 14.6274 14.1131 14.2524C13.7475 13.8773 13.2517 13.6666 12.7348 13.6666Z" fill="#0058BC"/>
<path d="M16.5685 8.66662C16.5685 9.72748 16.1578 10.7449 15.4266 11.495C14.6955 12.2452 13.7039 12.6666 12.67 12.6666C11.636 12.6666 10.6444 12.2452 9.91333 11.495C9.18222 10.7449 8.77148 9.72748 8.77148 8.66662C8.77148 7.60575 9.18222 6.58834 9.91333 5.8382C10.6444 5.08805 11.636 4.66663 12.67 4.66663C13.7039 4.66663 14.6955 5.08805 15.4266 5.8382C16.1578 6.58834 16.5685 7.60575 16.5685 8.66662Z" fill="#0058BC"/>
<path fill-rule="evenodd" clip-rule="evenodd" d="M12.67 9.99994C13.0146 9.99994 13.3452 9.85947 13.5889 9.60942C13.8326 9.35937 13.9695 9.02024 13.9695 8.66662C13.9695 8.31299 13.8326 7.97386 13.5889 7.72381C13.3452 7.47376 13.0146 7.33329 12.67 7.33329C12.3253 7.33329 11.9948 7.47376 11.7511 7.72381C11.5074 7.97386 11.3705 8.31299 11.3705 8.66662C11.3705 9.02024 11.5074 9.35937 11.7511 9.60942C11.9948 9.85947 12.3253 9.99994 12.67 9.99994ZM12.67 12.6666C13.7039 12.6666 14.6955 12.2452 15.4266 11.495C16.1578 10.7449 16.5685 9.72748 16.5685 8.66662C16.5685 7.60575 16.1578 6.58834 15.4266 5.8382C14.6955 5.08805 13.7039 4.66663 12.67 4.66663C11.636 4.66663 10.6444 5.08805 9.91333 5.8382C9.18222 6.58834 8.77148 7.60575 8.77148 8.66662C8.77148 9.72748 9.18222 10.7449 9.91333 11.495C10.6444 12.2452 11.636 12.6666 12.67 12.6666Z" fill="#0058BC"/>
<path d="M3.57324 9.99998H10.0707V15.3333H3.57324V9.99998ZM15.2687 9.99998H21.7662V15.3333H15.2687V9.99998Z" fill="#0058BC"/>
<path d="M10.0716 12.6667H15.2696L15.9194 19H9.42188L10.0716 12.6667Z" fill="#0058BC"/>
</g>
<path fill-rule="evenodd" clip-rule="evenodd" d="M4.54791 6.66665C5.23721 6.66665 5.89828 6.3857 6.38569 5.8856C6.87309 5.38551 7.14691 4.70723 7.14692 3.99999C7.14691 3.29275 6.87309 2.61447 6.38569 2.11438C5.89828 1.61428 5.23721 1.33333 4.54791 1.33333C3.85862 1.33333 3.19755 1.61428 2.71014 2.11438C2.22274 2.61447 1.94891 3.29275 1.94891 3.99999C1.94891 4.70723 2.22274 5.38551 2.71014 5.8856C3.19755 6.3857 3.85862 6.66665 4.54791 6.66665ZM4.54791 7.99998C5.05987 7.99998 5.56682 7.89652 6.03981 7.6955C6.51279 7.49448 6.94256 7.19984 7.30457 6.82841C7.66658 6.45698 7.95374 6.01602 8.14966 5.53072C8.34558 5.04542 8.44642 4.52528 8.44642 3.99999C8.44642 3.4747 8.34558 2.95456 8.14966 2.46926C7.95374 1.98396 7.66658 1.543 7.30457 1.17157C6.94256 0.800137 6.51279 0.5055 6.03981 0.304481C5.56682 0.103463 5.05987 -7.82737e-09 4.54791 0C3.51397 1.58081e-08 2.52237 0.421426 1.79126 1.17157C1.06015 1.92171 0.649414 2.93913 0.649414 3.99999C0.649414 5.06085 1.06015 6.07827 1.79126 6.82841C2.52237 7.57855 3.51397 7.99998 4.54791 7.99998Z" fill="#0058BC"/>
<path fill-rule="evenodd" clip-rule="evenodd" d="M3.05902 6.52796C3.11953 6.58988 3.16754 6.66345 3.2003 6.74444C3.23305 6.82544 3.24991 6.91226 3.24991 6.99995C3.24991 7.08764 3.23305 7.17447 3.2003 7.25546C3.16754 7.33646 3.11953 7.41003 3.05902 7.47195L2.61979 7.92128C1.77451 8.78881 1.29961 9.96525 1.2995 11.1919V13.6666C1.2995 13.8434 1.23104 14.013 1.10919 14.138C0.987341 14.263 0.822075 14.3333 0.64975 14.3333C0.477426 14.3333 0.312159 14.263 0.190307 14.138C0.0684556 14.013 0 13.8434 0 13.6666V11.1919C0.000184216 9.61166 0.612046 8.09613 1.70105 6.97862L2.13898 6.52796C2.19933 6.46587 2.27103 6.41661 2.34997 6.38301C2.42891 6.3494 2.51354 6.3321 2.599 6.3321C2.68447 6.3321 2.76909 6.3494 2.84803 6.38301C2.92697 6.41661 2.99867 6.46587 3.05902 6.52796ZM18.3827 6.12796C18.3222 6.18988 18.2742 6.26345 18.2415 6.34444C18.2087 6.42544 18.1918 6.51227 18.1918 6.59995C18.1918 6.68764 18.2087 6.77447 18.2415 6.85547C18.2742 6.93646 18.3222 7.01003 18.3827 7.07195L18.822 7.52129C19.6672 8.38881 20.1421 9.56525 20.1423 10.7919V13.6666C20.1423 13.8434 20.2107 14.013 20.3326 14.138C20.4544 14.263 20.6197 14.3333 20.792 14.3333C20.9643 14.3333 21.1296 14.263 21.2514 14.138C21.3733 14.013 21.4418 13.8434 21.4418 13.6666V10.7919C21.4416 9.21166 20.8297 7.69614 19.7407 6.57862L19.3028 6.12796C19.2424 6.06587 19.1707 6.01662 19.0918 5.98301C19.0128 5.9494 18.9282 5.9321 18.8428 5.9321C18.7573 5.9321 18.6727 5.9494 18.5937 5.98301C18.5148 6.01662 18.4431 6.06587 18.3827 6.12796Z" fill="#0058BC"/>
<path fill-rule="evenodd" clip-rule="evenodd" d="M16.2437 6.66665C15.5544 6.66665 14.8933 6.3857 14.4059 5.8856C13.9185 5.38551 13.6447 4.70723 13.6447 3.99999C13.6447 3.29275 13.9185 2.61447 14.4059 2.11438C14.8933 1.61428 15.5544 1.33333 16.2437 1.33333C16.933 1.33333 17.594 1.61428 18.0814 2.11438C18.5688 2.61447 18.8427 3.29275 18.8427 3.99999C18.8427 4.70723 18.5688 5.38551 18.0814 5.8856C17.594 6.3857 16.933 6.66665 16.2437 6.66665ZM16.2437 7.99998C15.7317 7.99998 15.2248 7.89652 14.7518 7.6955C14.2788 7.49448 13.849 7.19984 13.487 6.82841C13.125 6.45698 12.8378 6.01602 12.6419 5.53072C12.446 5.04542 12.3452 4.52528 12.3452 3.99999C12.3452 3.4747 12.446 2.95456 12.6419 2.46926C12.8378 1.98396 13.125 1.543 13.487 1.17157C13.849 0.800137 14.2788 0.5055 14.7518 0.304481C15.2248 0.103463 15.7317 -7.82737e-09 16.2437 0C17.2776 1.58081e-08 18.2692 0.421426 19.0003 1.17157C19.7314 1.92171 20.1422 2.93913 20.1422 3.99999C20.1422 5.06085 19.7314 6.07827 19.0003 6.82841C18.2692 7.57855 17.2776 7.99998 16.2437 7.99998ZM10.3959 12.3333C9.53429 12.3333 8.70795 12.6845 8.09869 13.3096C7.48943 13.9347 7.14716 14.7826 7.14716 15.6666V17.4C7.14716 17.5768 7.0787 17.7463 6.95685 17.8714C6.835 17.9964 6.66973 18.0666 6.49741 18.0666C6.32508 18.0666 6.15982 17.9964 6.03796 17.8714C5.91611 17.7463 5.84766 17.5768 5.84766 17.4V15.6666C5.84766 14.429 6.32685 13.242 7.17981 12.3668C8.03277 11.4916 9.18964 11 10.3959 11C11.6022 11 12.759 11.4916 13.612 12.3668C14.465 13.242 14.9442 14.429 14.9442 15.6666V17.4C14.9442 17.5768 14.8757 17.7463 14.7539 17.8714C14.632 17.9964 14.4667 18.0666 14.2944 18.0666C14.1221 18.0666 13.9568 17.9964 13.835 17.8714C13.7131 17.7463 13.6447 17.5768 13.6447 17.4V15.6666C13.6447 15.2289 13.5606 14.7954 13.3974 14.391C13.2341 13.9866 12.9948 13.6191 12.6931 13.3096C12.3914 13.0001 12.0333 12.7545 11.6392 12.587C11.245 12.4195 10.8225 12.3333 10.3959 12.3333Z" fill="#0058BC"/>
<path fill-rule="evenodd" clip-rule="evenodd" d="M10.3965 10.3333C11.0858 10.3333 11.7469 10.0524 12.2343 9.55229C12.7217 9.05219 12.9955 8.37392 12.9955 7.66668C12.9955 6.95943 12.7217 6.28116 12.2343 5.78106C11.7469 5.28097 11.0858 5.00002 10.3965 5.00002C9.70725 5.00002 9.04618 5.28097 8.55878 5.78106C8.07137 6.28116 7.79755 6.95943 7.79755 7.66668C7.79755 8.37392 8.07137 9.05219 8.55878 9.55229C9.04618 10.0524 9.70725 10.3333 10.3965 10.3333ZM10.3965 11.6667C11.4305 11.6667 12.4221 11.2452 13.1532 10.4951C13.8843 9.74495 14.295 8.72754 14.295 7.66668C14.295 6.60581 13.8843 5.5884 13.1532 4.83826C12.4221 4.08811 11.4305 3.66669 10.3965 3.66669C9.3626 3.66669 8.371 4.08811 7.63989 4.83826C6.90878 5.5884 6.49805 6.60581 6.49805 7.66668C6.49805 8.72754 6.90878 9.74495 7.63989 10.4951C8.371 11.2452 9.3626 11.6667 10.3965 11.6667Z" fill="#0058BC"/>
</svg>
