<svg preserveAspectRatio="none" width="100%" height="100%" overflow="visible" style="display: block;" viewBox="0 0 42 42" fill="none" xmlns="http://www.w3.org/2000/svg">
<g id="material-symbols-light:location-on-rounded">
<path id="Vector" d="M18.1775 35.8383C17.9045 35.7484 17.6525 35.6026 17.4215 35.4008C16.1767 34.2563 14.9144 32.9817 13.6345 31.577C12.357 30.1735 11.1962 28.7192 10.152 27.2142C9.10787 25.7092 8.25153 24.1733 7.58303 22.6065C6.91453 21.0397 6.58087 19.5102 6.58203 18.018C6.58203 14.3162 7.7872 11.263 10.1975 8.8585C12.609 6.45283 15.5432 5.25 19 5.25C22.4569 5.25 25.391 6.45283 27.8025 8.8585C30.2129 11.263 31.418 14.3162 31.418 18.018C31.418 19.5102 31.0844 21.0344 30.417 22.5908C29.7497 24.1459 28.8992 25.6813 27.8655 27.1968C26.833 28.7134 25.6775 30.1682 24.3988 31.5612C23.1201 32.9542 21.8572 34.223 20.61 35.3675C20.379 35.5693 20.1212 35.721 19.8365 35.8225C19.5519 35.924 19.2725 35.9742 18.9983 35.973C18.7241 35.9718 18.4517 35.9269 18.1775 35.8383ZM20.9985 19.7032C21.5492 19.1526 21.8245 18.4858 21.8245 17.703C21.8245 16.919 21.5492 16.2517 20.9985 15.701C20.4479 15.1503 19.7817 14.875 19 14.875C18.2184 14.875 17.5516 15.1503 16.9998 15.701C16.448 16.2517 16.1726 16.919 16.1738 17.703C16.175 18.487 16.4503 19.1537 16.9998 19.7032C17.5493 20.2527 18.216 20.5275 19 20.5275C19.784 20.5275 20.4508 20.2522 21.0003 19.7015" fill="var(--fill-0, #2A64E1)"/>
</g>
</svg>
