<svg preserveAspectRatio="none" width="100%" height="100%" overflow="visible" style="display: block;" viewBox="0 0 34.1067 39.0834" fill="none" xmlns="http://www.w3.org/2000/svg">
<g id="Group">
<g id="Vector">
</g>
<path id="Vector_2" fill-rule="evenodd" clip-rule="evenodd" d="M0 3.58333C0 2.63297 0.377529 1.72154 1.04953 1.04953C1.72154 0.377529 2.63297 0 3.58333 0H7.16667C7.81883 0 8.43158 0.173791 8.95833 0.480166C9.50306 0.165631 10.121 2.76765e-05 10.75 0H14.3333C15.6359 0 16.7772 0.695167 17.4043 1.73613C17.7805 1.43513 18.2213 1.20579 18.7158 1.07321L22.1773 0.146917C22.6318 0.0249811 23.106 -0.00621221 23.5726 0.0551186C24.0392 0.116449 24.4892 0.269103 24.8968 0.50436C25.3044 0.739618 25.6617 1.05287 25.9483 1.42623C26.2348 1.79959 26.445 2.22573 26.5668 2.68033L33.9843 30.3705C34.1063 30.8251 34.1375 31.2993 34.0761 31.7659C34.0148 32.2325 33.8622 32.6825 33.6269 33.0901C33.3916 33.4977 33.0784 33.855 32.705 34.1416C32.3317 34.4281 31.9055 34.6383 31.4509 34.7601L27.9894 35.6864C27.5348 35.8084 27.0607 35.8395 26.5941 35.7782C26.1275 35.7169 25.6775 35.5642 25.2698 35.329C24.8622 35.0937 24.5049 34.7805 24.2184 34.4071C23.9318 34.0337 23.7217 33.6076 23.5998 33.153L17.9167 11.9379V32.25C17.9167 33.2004 17.5391 34.1118 16.8671 34.7838C16.1951 35.4558 15.2837 35.8333 14.3333 35.8333H10.75C10.121 35.8333 9.50306 35.6677 8.95833 35.3532C8.41361 35.6677 7.79568 35.8333 7.16667 35.8333H3.58333C2.63297 35.8333 1.72154 35.4558 1.04953 34.7838C0.377529 34.1118 0 33.2004 0 32.25V3.58333ZM3.58333 3.58333H7.16667V32.25H3.58333V3.58333ZM14.3333 32.25H10.75V3.58333H14.3333V32.25ZM19.6438 4.53471L23.1035 3.60842L30.5246 31.2986L27.0631 32.2249L19.6438 4.53471Z" fill="var(--fill-0, #757575)"/>
</g>
</svg>
