<svg preserveAspectRatio="none" width="100%" height="100%" overflow="visible" style="display: block;" viewBox="0 0 40 40" fill="none" xmlns="http://www.w3.org/2000/svg">
<g id="gis:map-users" clip-path="url(#clip0_0_80)">
<path id="Vector" fill-rule="evenodd" clip-rule="evenodd" d="M1.0092 2C0.877106 1.99878 0.74608 2.02375 0.623691 2.07346C0.501301 2.12317 0.389974 2.19664 0.296138 2.28962C0.202303 2.3826 0.12782 2.49325 0.0769909 2.61518C0.0261618 2.73711 -5.59057e-06 2.8679 0 3L0 31.116C3.19795e-05 31.3066 0.0545297 31.4932 0.157074 31.6539C0.259619 31.8145 0.405939 31.9425 0.5788 32.0228L8.14 35.5348C8.152 34.8232 8.1984 34.1096 8.3064 33.4068L2 30.4776V4.5672L12.91 9.6352L12.9564 17.6976C13.3157 17.335 13.7166 17.0161 14.1508 16.7476L14.1108 9.7804L25.5812 4.452L25.6428 15.1896C26.0167 14.8919 26.4169 14.6288 26.8384 14.4036L26.7804 4.3104L38 9.522V21.0548C38.0016 21.1433 38.0016 21.2319 38 21.3204V28.4796C38.5864 28.9236 39.116 29.4396 39.5556 30.0336C39.7156 30.248 39.862 30.4696 40 30.696V8.884C40 8.69341 39.9455 8.50679 39.8429 8.34614C39.7404 8.18548 39.5941 8.05748 39.4212 7.9772L26.7548 2.0932C26.6198 2.03042 26.4725 1.99858 26.3236 2C26.1812 2.00125 26.0408 2.03289 25.9116 2.0928L13.6664 7.7812L1.4212 2.0932C1.29207 2.03315 1.1516 2.00138 1.0092 2ZM13.0084 26.886L13.01 27.07C13.0524 27.054 13.0932 27.0328 13.136 27.0172C13.0916 26.9752 13.052 26.9292 13.0084 26.886Z" fill="var(--fill-0, #757575)"/>
<path id="Vector_2" d="M30.4 15.1076C27.086 15.1076 24.4 17.794 24.4 21.1076C24.4 24.4212 27.086 27.1076 30.4 27.1076C33.7132 27.1076 36.4 24.4212 36.4 21.1076C36.4 17.794 33.7132 15.1076 30.4 15.1076ZM30.4 27.9968C23.772 27.9968 20.8 30.9692 20.8 37.5968V38.3968C20.83 39.9728 21.5268 40.0192 23 39.9968H37.8C39.678 39.9952 40.0128 39.9988 40 38.3968V37.5968C40 30.9692 37.0272 27.9968 30.4 27.9968ZM17.6 17.356C14.8852 17.356 12.6836 19.5576 12.6836 22.2728C12.6836 24.9876 14.8852 27.1884 17.6 27.1884C20.3148 27.1884 22.516 24.9876 22.516 22.2724C22.516 19.5572 20.3148 17.356 17.6 17.356ZM17.6 27.9168C12.17 27.9168 9.7344 30.3528 9.7344 35.7824V36.438C9.7592 37.7292 10.33 37.7672 11.5368 37.7488H19.186C18.9908 34.5136 19.9464 31.0776 22.3264 28.8932C21.1216 28.2348 19.5564 27.9168 17.6 27.9168Z" fill="var(--fill-0, #757575)"/>
</g>
<defs>
<clipPath id="clip0_0_80">
<rect width="40" height="40" fill="white"/>
</clipPath>
</defs>
</svg>
