<svg preserveAspectRatio="none" width="100%" height="100%" overflow="visible" style="display: block;" viewBox="0 0 44 44" fill="none" xmlns="http://www.w3.org/2000/svg">
<g id="mi:users">
<path id="Vector" fill-rule="evenodd" clip-rule="evenodd" d="M33.4409 4.78496C34.3501 4.78496 35.0892 5.52405 35.0892 6.43334V9.448H38.1039C38.43 9.44793 38.7487 9.54457 39.0199 9.72569C39.291 9.90681 39.5023 10.1643 39.6271 10.4655C39.7519 10.7668 39.7846 11.0983 39.7209 11.4181C39.6573 11.7379 39.5003 12.0316 39.2697 12.2621L35.8656 15.6662C35.3686 16.1621 34.6955 16.4412 33.9934 16.4426H30.5661L22.3358 24.6728C22.0043 24.9817 21.5659 25.1499 21.1129 25.1419C20.6599 25.1339 20.2276 24.9504 19.9073 24.63C19.5869 24.3096 19.4034 23.8774 19.3954 23.4244C19.3874 22.9713 19.5555 22.5329 19.8644 22.2014L28.0947 13.9712V10.5438C28.0947 9.84203 28.3745 9.16822 28.8711 8.66927L32.2751 5.26525C32.4277 5.11146 32.6093 4.98959 32.8095 4.90673C33.0096 4.82387 33.2242 4.78168 33.4409 4.78262M8.27674 23.4371C8.27649 21.5359 8.69903 19.6583 9.51375 17.9405C10.3285 16.2226 11.515 14.7074 12.9874 13.5046C14.4598 12.3017 16.1813 11.4413 18.0272 10.9857C19.873 10.5301 21.7971 10.4907 23.6601 10.8702C24.1123 10.9565 24.5802 10.861 24.9624 10.6045C25.3446 10.348 25.6102 9.95111 25.7016 9.49999C25.7931 9.04888 25.703 8.57989 25.4509 8.19478C25.1987 7.80968 24.805 7.53951 24.3549 7.44289C20.9175 6.74402 17.3463 7.17124 14.1708 8.66124C10.9952 10.1512 8.38415 12.6247 6.72463 15.7151C5.06511 18.8054 4.44543 22.3483 4.95741 25.8185C5.46939 29.2887 7.08579 32.5016 9.56706 34.981C12.0483 37.4605 15.2624 39.0745 18.733 39.584C22.2036 40.0934 25.7459 39.4711 28.8351 37.8093C31.9242 36.1476 34.3958 33.5347 35.8835 30.358C37.3711 27.1814 37.7957 23.6099 37.0943 20.173C37.0019 19.7185 36.7327 19.3194 36.346 19.0633C35.9592 18.8073 35.4866 18.7154 35.0321 18.8079C34.5776 18.9003 34.1785 19.1695 33.9225 19.5563C33.6665 19.943 33.5746 20.4156 33.667 20.8701C33.8364 21.6986 33.9219 22.5543 33.9235 23.4371C33.9235 26.8381 32.5725 30.0998 30.1676 32.5046C27.7628 34.9095 24.5011 36.2605 21.1001 36.2605C17.6991 36.2605 14.4375 34.9095 12.0326 32.5046C9.62777 30.0998 8.27674 26.8381 8.27674 23.4371ZM20.783 17.6177C21.2462 17.5929 21.6805 17.3852 21.9905 17.0402C22.3005 16.6952 22.4608 16.2412 22.4361 15.7781C22.4113 15.3149 22.2036 14.8806 21.8586 14.5706C21.5137 14.2606 21.0597 14.1003 20.5965 14.125C18.8057 14.2215 17.0807 14.8323 15.6282 15.8842C14.1757 16.9361 13.0573 18.3845 12.407 20.0558C11.7567 21.7271 11.6021 23.5505 11.9617 25.3075C12.3212 27.0644 13.1797 28.6805 14.4344 29.9619C15.689 31.2434 17.2865 32.136 19.0354 32.5327C20.7844 32.9294 22.6106 32.8134 24.2953 32.1986C25.98 31.5838 27.4518 30.4964 28.5342 29.0665C29.6166 27.6366 30.2638 25.9249 30.3982 24.1366C30.4325 23.6741 30.2817 23.2168 29.9789 22.8655C29.6761 22.5142 29.2462 22.2975 28.7836 22.2632C28.3211 22.2289 27.8639 22.3797 27.5126 22.6825C27.1612 22.9853 26.9446 23.4153 26.9103 23.8778C26.8252 24.9949 26.42 26.0639 25.7432 26.9567C25.0664 27.8495 24.1466 28.5283 23.0939 28.9119C22.0413 29.2955 20.9004 29.3675 19.8078 29.1195C18.7152 28.8715 17.7173 28.3138 16.9335 27.5133C16.1497 26.7128 15.6132 25.7033 15.3882 24.6058C15.1632 23.5082 15.2593 22.3691 15.665 21.3248C16.0707 20.2804 16.7687 19.3752 17.6756 18.7173C18.5824 18.0594 19.6597 17.6768 20.7784 17.6153" fill="var(--fill-0, #757575)"/>
<g id="gravity-ui:target-dart">
</g>
</g>
</svg>
